<mxfile host="app.diagrams.net" agent="Mozilla/5.0 (Windows NT 10.0; Win64; x64) AppleWebKit/537.36 (KHTML, like Gecko) Chrome/129.0.0.0 Safari/537.36" version="24.7.17">
  <diagram name="Page-1" id="T6ZEB6pp5PNpfnQax4kN">
    <mxGraphModel dx="937" dy="511" grid="1" gridSize="11" guides="1" tooltips="1" connect="1" arrows="1" fold="1" page="1" pageScale="1" pageWidth="850" pageHeight="1100" math="0" shadow="0">
      <root>
        <mxCell id="0" />
        <mxCell id="1" parent="0" />
        <mxCell id="dcvPBvNPeGq-4Nh8B9vN-1" value="&lt;h3&gt;Jonathan Scruggs&lt;/h3&gt;" style="text;html=1;align=center;verticalAlign=middle;resizable=0;points=[];autosize=1;strokeColor=none;fillColor=none;" vertex="1" parent="1">
          <mxGeometry x="99" y="132" width="143" height="55" as="geometry" />
        </mxCell>
        <mxCell id="dcvPBvNPeGq-4Nh8B9vN-2" value="&lt;p style=&quot;margin:0px;margin-top:4px;text-align:center;&quot;&gt;&lt;i&gt;&amp;lt;&amp;lt;View&amp;gt;&amp;gt;&lt;/i&gt;&lt;br&gt;&lt;b&gt;SpyCorderView&lt;/b&gt;&lt;/p&gt;&lt;hr size=&quot;1&quot; style=&quot;border-style:solid;&quot;&gt;&lt;p style=&quot;margin:0px;margin-left:4px;&quot;&gt;- showRemainingTime()&lt;/p&gt;&lt;p style=&quot;margin:0px;margin-left:4px;&quot;&gt;+ update()&lt;/p&gt;&lt;p style=&quot;margin:0px;margin-left:4px;&quot;&gt;&lt;br&gt;&lt;/p&gt;" style="verticalAlign=top;align=left;overflow=fill;html=1;whiteSpace=wrap;" vertex="1" parent="1">
          <mxGeometry x="88" y="198" width="190" height="140" as="geometry" />
        </mxCell>
        <mxCell id="dcvPBvNPeGq-4Nh8B9vN-3" value="&lt;p style=&quot;margin:0px;margin-top:4px;text-align:center;&quot;&gt;&lt;i&gt;&amp;lt;&amp;lt;Model&amp;gt;&amp;gt;&lt;/i&gt;&lt;br&gt;&lt;b&gt;SpyCorderModel&lt;/b&gt;&lt;/p&gt;&lt;hr size=&quot;1&quot; style=&quot;border-style:solid;&quot;&gt;&lt;p style=&quot;margin:0px;margin-left:4px;&quot;&gt;- ArrayList&amp;lt;View&amp;gt;&lt;/p&gt;&lt;p style=&quot;margin:0px;margin-left:4px;&quot;&gt;- storrage: int {readOnly}&lt;/p&gt;&lt;p style=&quot;margin:0px;margin-left:4px;&quot;&gt;- recording: ArrayList&amp;lt;sounds&amp;gt;&lt;/p&gt;&lt;p style=&quot;margin:0px;margin-left:4px;&quot;&gt;- enabled: boolean&lt;/p&gt;&lt;p style=&quot;margin:0px;margin-left:4px;&quot;&gt;&lt;br&gt;&lt;/p&gt;&lt;p style=&quot;margin:0px;margin-left:4px;&quot;&gt;&lt;span style=&quot;background-color: initial;&quot;&gt;+ addView(view: View+)&lt;/span&gt;&lt;/p&gt;&lt;p style=&quot;margin:0px;margin-left:4px;&quot;&gt;&lt;span style=&quot;background-color: initial;&quot;&gt;+ runLoop()&lt;/span&gt;&lt;/p&gt;&lt;p style=&quot;margin:0px;margin-left:4px;&quot;&gt;&lt;span style=&quot;background-color: initial;&quot;&gt;&amp;nbsp;&lt;/span&gt;&lt;br&gt;&lt;/p&gt;" style="verticalAlign=top;align=left;overflow=fill;html=1;whiteSpace=wrap;" vertex="1" parent="1">
          <mxGeometry x="220" y="429" width="190" height="198" as="geometry" />
        </mxCell>
        <mxCell id="dcvPBvNPeGq-4Nh8B9vN-4" value="&lt;p style=&quot;margin:0px;margin-top:4px;text-align:center;&quot;&gt;&lt;i&gt;&amp;lt;&amp;lt;Controller&amp;gt;&amp;gt;&lt;/i&gt;&lt;br&gt;&lt;b&gt;SpyCorderController&lt;/b&gt;&lt;/p&gt;&lt;hr size=&quot;1&quot; style=&quot;border-style:solid;&quot;&gt;&lt;p style=&quot;margin:0px;margin-left:4px;&quot;&gt;- model: SpyCorderModel&lt;/p&gt;&lt;p style=&quot;margin:0px;margin-left:4px;&quot;&gt;&lt;br&gt;&lt;/p&gt;&lt;p style=&quot;margin:0px;margin-left:4px;&quot;&gt;&lt;br&gt;&lt;/p&gt;&lt;p style=&quot;margin:0px;margin-left:4px;&quot;&gt;+ start()&lt;br&gt;&lt;/p&gt;&lt;p style=&quot;margin:0px;margin-left:4px;&quot;&gt;+ stop()&lt;/p&gt;" style="verticalAlign=top;align=left;overflow=fill;html=1;whiteSpace=wrap;" vertex="1" parent="1">
          <mxGeometry x="410" y="198" width="190" height="140" as="geometry" />
        </mxCell>
        <mxCell id="dcvPBvNPeGq-4Nh8B9vN-5" value="" style="endArrow=diamondThin;endFill=1;endSize=24;html=1;rounded=0;entryX=0;entryY=0.25;entryDx=0;entryDy=0;exitX=0.25;exitY=1;exitDx=0;exitDy=0;" edge="1" parent="1" source="dcvPBvNPeGq-4Nh8B9vN-2" target="dcvPBvNPeGq-4Nh8B9vN-3">
          <mxGeometry width="160" relative="1" as="geometry">
            <mxPoint x="143" y="385" as="sourcePoint" />
            <mxPoint x="154" y="429" as="targetPoint" />
            <Array as="points">
              <mxPoint x="165" y="418" />
            </Array>
          </mxGeometry>
        </mxCell>
        <mxCell id="dcvPBvNPeGq-4Nh8B9vN-9" value="0...*" style="text;html=1;align=center;verticalAlign=middle;resizable=0;points=[];autosize=1;strokeColor=none;fillColor=none;" vertex="1" parent="1">
          <mxGeometry x="504" y="338" width="44" height="33" as="geometry" />
        </mxCell>
        <mxCell id="dcvPBvNPeGq-4Nh8B9vN-10" value="1" style="text;html=1;align=center;verticalAlign=middle;resizable=0;points=[];autosize=1;strokeColor=none;fillColor=none;" vertex="1" parent="1">
          <mxGeometry x="409" y="492" width="33" height="33" as="geometry" />
        </mxCell>
        <mxCell id="dcvPBvNPeGq-4Nh8B9vN-12" value="" style="endArrow=none;html=1;edgeStyle=orthogonalEdgeStyle;rounded=0;exitX=1.019;exitY=0.574;exitDx=0;exitDy=0;exitPerimeter=0;entryX=0;entryY=0.25;entryDx=0;entryDy=0;" edge="1" parent="1" source="dcvPBvNPeGq-4Nh8B9vN-2" target="dcvPBvNPeGq-4Nh8B9vN-4">
          <mxGeometry relative="1" as="geometry">
            <mxPoint x="297" y="363" as="sourcePoint" />
            <mxPoint x="457" y="363" as="targetPoint" />
          </mxGeometry>
        </mxCell>
        <mxCell id="dcvPBvNPeGq-4Nh8B9vN-15" value="1" style="text;html=1;align=center;verticalAlign=middle;resizable=0;points=[];autosize=1;strokeColor=none;fillColor=none;" vertex="1" parent="1">
          <mxGeometry x="278" y="251.5" width="33" height="33" as="geometry" />
        </mxCell>
        <mxCell id="dcvPBvNPeGq-4Nh8B9vN-17" value="1" style="text;html=1;align=center;verticalAlign=middle;resizable=0;points=[];autosize=1;strokeColor=none;fillColor=none;" vertex="1" parent="1">
          <mxGeometry x="377" y="231" width="33" height="33" as="geometry" />
        </mxCell>
        <mxCell id="dcvPBvNPeGq-4Nh8B9vN-18" value="0..*" style="text;html=1;align=center;verticalAlign=middle;resizable=0;points=[];autosize=1;strokeColor=none;fillColor=none;" vertex="1" parent="1">
          <mxGeometry x="99" y="330" width="44" height="33" as="geometry" />
        </mxCell>
        <mxCell id="dcvPBvNPeGq-4Nh8B9vN-19" value="1" style="text;html=1;align=center;verticalAlign=middle;resizable=0;points=[];autosize=1;strokeColor=none;fillColor=none;" vertex="1" parent="1">
          <mxGeometry x="180" y="459" width="33" height="33" as="geometry" />
        </mxCell>
        <mxCell id="dcvPBvNPeGq-4Nh8B9vN-22" value="" style="endArrow=open;html=1;endSize=12;startArrow=diamondThin;startSize=14;startFill=0;edgeStyle=orthogonalEdgeStyle;align=left;verticalAlign=bottom;rounded=0;exitX=0.5;exitY=1;exitDx=0;exitDy=0;entryX=1;entryY=0.5;entryDx=0;entryDy=0;" edge="1" parent="1" source="dcvPBvNPeGq-4Nh8B9vN-4" target="dcvPBvNPeGq-4Nh8B9vN-3">
          <mxGeometry x="-1" y="3" relative="1" as="geometry">
            <mxPoint x="473" y="396" as="sourcePoint" />
            <mxPoint x="633" y="451" as="targetPoint" />
          </mxGeometry>
        </mxCell>
        <mxCell id="dcvPBvNPeGq-4Nh8B9vN-24" value="" style="endArrow=none;html=1;rounded=0;entryX=1;entryY=0.5;entryDx=0;entryDy=0;exitX=0;exitY=0.5;exitDx=0;exitDy=0;" edge="1" parent="1" source="dcvPBvNPeGq-4Nh8B9vN-4" target="dcvPBvNPeGq-4Nh8B9vN-4">
          <mxGeometry width="50" height="50" relative="1" as="geometry">
            <mxPoint x="451" y="303" as="sourcePoint" />
            <mxPoint x="501" y="253" as="targetPoint" />
          </mxGeometry>
        </mxCell>
        <mxCell id="dcvPBvNPeGq-4Nh8B9vN-25" value="observe" style="text;html=1;align=center;verticalAlign=middle;resizable=0;points=[];autosize=1;strokeColor=none;fillColor=none;rotation=40;" vertex="1" parent="1">
          <mxGeometry x="132" y="426" width="66" height="33" as="geometry" />
        </mxCell>
        <mxCell id="dcvPBvNPeGq-4Nh8B9vN-28" value="" style="line;strokeWidth=1;fillColor=none;align=left;verticalAlign=middle;spacingTop=-1;spacingLeft=3;spacingRight=3;rotatable=0;labelPosition=right;points=[];portConstraint=eastwest;strokeColor=inherit;" vertex="1" parent="1">
          <mxGeometry x="220" y="542" width="187" height="8" as="geometry" />
        </mxCell>
        <mxCell id="dcvPBvNPeGq-4Nh8B9vN-29" value="calls setters" style="text;html=1;align=center;verticalAlign=middle;resizable=0;points=[];autosize=1;strokeColor=none;fillColor=none;" vertex="1" parent="1">
          <mxGeometry x="512" y="440" width="88" height="33" as="geometry" />
        </mxCell>
      </root>
    </mxGraphModel>
  </diagram>
</mxfile>
